<?xml version="1.0" encoding="iso-8859-1"?>
<!-- Generator: Adobe Illustrator 18.0.0, SVG Export Plug-In . SVG Version: 6.00 Build 0)  -->
<!DOCTYPE svg PUBLIC "-//W3C//DTD SVG 1.1//EN" "http://www.w3.org/Graphics/SVG/1.1/DTD/svg11.dtd">
<svg version="1.1" id="Capa_1" xmlns="http://www.w3.org/2000/svg" xmlns:xlink="http://www.w3.org/1999/xlink" x="0px" y="0px"
	 viewBox="0 0 489 489" style="enable-background:new 0 0 489 489;" xml:space="preserve">
<g>
	<path d="M457.347,22.815H31.654C14.2,22.815,0,37.015,0,54.469v251.185c0,17.454,14.2,31.654,31.654,31.654H68.12
		c0.694,0.97,1.481,1.904,2.371,2.794c4.771,4.77,11.367,7.089,20.165,7.089c1.579,0,3.177-0.078,4.783-0.198v108.691
		c0,3.783,2.035,7.273,5.327,9.137c3.29,1.863,7.331,1.814,10.576-0.134l54.131-32.478l54.131,32.479
		c1.662,0.997,3.531,1.496,5.402,1.496c1.783,0,3.567-0.454,5.173-1.363c3.292-1.864,5.327-5.354,5.327-9.137V346.993
		c1.606,0.121,3.205,0.198,4.783,0.198c8.798,0,15.394-2.319,20.163-7.088c0.891-0.891,1.678-1.825,2.372-2.795h194.522
		c17.454,0,31.653-14.2,31.653-31.654V54.469C489,37.015,474.801,22.815,457.347,22.815z M170.875,410.96
		c-3.325-1.994-7.479-1.995-10.805,0L116.44,437.14v-92.649c0.949-0.063,1.866-0.1,2.74-0.1c2.747,0,4.183,0.357,4.904,0.656
		c3.026,1.254,7.637,7.46,11.342,12.445c7.646,10.29,16.313,21.953,30.047,21.953c13.734,0,22.401-11.663,30.047-21.953
		c3.705-4.986,8.316-11.191,11.342-12.445c0.721-0.299,2.158-0.656,4.904-0.656c0.874,0,1.792,0.038,2.741,0.1v92.649
		L170.875,410.96z M245.605,325.253c-0.039,0.038-0.988,0.938-5.316,0.938c-3.671,0-8.081-0.628-12.75-1.293
		c-5.204-0.741-10.584-1.508-15.774-1.508c-5.049,0-9.285,0.738-12.948,2.257c-8.38,3.475-14.365,11.529-20.153,19.318
		c-3.746,5.041-10.016,13.479-13.192,13.479c-3.176,0-9.446-8.437-13.191-13.479c-5.788-7.789-11.773-15.843-20.153-19.318
		c-3.663-1.519-7.898-2.257-12.948-2.257c-5.189,0-10.57,0.767-15.773,1.508c-4.668,0.665-9.078,1.293-12.75,1.293
		c-4.328,0-5.278-0.9-5.316-0.938c-1.941-1.941-0.447-12.429,0.355-18.063c1.403-9.85,2.854-20.034-0.749-28.724
		c-3.475-8.38-11.53-14.365-19.318-20.153c-5.042-3.746-13.479-10.016-13.479-13.191s8.437-9.445,13.478-13.191
		c7.789-5.788,15.844-11.773,19.319-20.153c3.604-8.689,2.153-18.874,0.75-28.723c-0.803-5.635-2.296-16.123-0.354-18.065
		c0.038-0.039,0.987-0.938,5.314-0.938c3.67,0,8.08,0.628,12.748,1.293c5.204,0.741,10.585,1.508,15.775,1.508
		c5.05,0,9.286-0.738,12.949-2.257c8.38-3.475,14.365-11.529,20.153-19.318c3.746-5.041,10.016-13.478,13.191-13.478
		c3.176,0,9.446,8.437,13.192,13.478c5.788,7.789,11.773,15.843,20.153,19.318c3.663,1.519,7.898,2.257,12.949,2.257
		c5.189,0,10.569-0.766,15.773-1.507c4.668-0.665,9.078-1.293,12.749-1.293c4.328,0,5.278,0.9,5.316,0.939
		c1.942,1.942,0.448,12.43-0.354,18.064c-1.403,9.849-2.854,20.032,0.749,28.722c3.476,8.38,11.53,14.366,19.319,20.154
		c5.041,3.746,13.479,10.016,13.479,13.191s-8.438,9.445-13.479,13.191c-7.789,5.788-15.844,11.773-19.319,20.154
		c-3.603,8.689-2.152,18.873-0.75,28.721C246.053,312.822,247.547,323.311,245.605,325.253z M468,305.654
		c0,5.875-4.779,10.654-10.653,10.654H267.423c-0.24-4.059-0.822-8.153-1.382-12.081c-0.91-6.389-2.043-14.339-0.643-17.716
		c1.255-3.026,7.46-7.637,12.446-11.342c10.29-7.647,21.953-16.313,21.953-30.047s-11.663-22.401-21.953-30.047
		c-4.986-3.705-11.191-8.316-12.446-11.341c-1.4-3.377-0.267-11.328,0.643-17.716c1.77-12.428,3.776-26.513-5.586-35.876
		c-4.771-4.771-11.367-7.09-20.166-7.09c-5.159,0-10.523,0.764-15.71,1.503c-4.686,0.667-9.111,1.297-12.812,1.297
		c-2.747,0-4.183-0.356-4.905-0.656c-3.026-1.254-7.637-7.46-11.342-12.445c-7.646-10.29-16.313-21.953-30.047-21.953
		c-13.734,0-22.401,11.663-30.047,21.953c-3.705,4.986-8.315,11.191-11.341,12.445c-0.722,0.299-2.158,0.656-4.905,0.656
		c-3.701,0-8.128-0.63-12.813-1.298c-5.188-0.739-10.551-1.503-15.71-1.503c-8.798,0-15.394,2.319-20.164,7.088
		c-9.363,9.363-7.357,23.449-5.586,35.876c0.91,6.389,2.042,14.339,0.642,17.717c-1.255,3.026-7.46,7.637-12.446,11.342
		c-10.29,7.646-21.953,16.313-21.953,30.047c0,13.734,11.663,22.401,21.953,30.047c4.986,3.705,11.191,8.316,12.445,11.341
		c1.401,3.377,0.268,11.329-0.642,17.718c-0.56,3.928-1.142,8.022-1.382,12.08h-31.87c-5.875,0-10.654-4.779-10.654-10.654V54.469
		c0-5.875,4.779-10.654,10.654-10.654h425.693c5.874,0,10.653,4.779,10.653,10.654V305.654z"/>
	<path d="M425.003,123.649h-88.845c-5.799,0-10.5,4.701-10.5,10.5c0,5.799,4.701,10.5,10.5,10.5h88.845
		c5.799,0,10.5-4.701,10.5-10.5C435.503,128.35,430.802,123.649,425.003,123.649z"/>
	<path d="M425.003,193.463h-88.845c-5.799,0-10.5,4.701-10.5,10.5s4.701,10.5,10.5,10.5h88.845c5.799,0,10.5-4.701,10.5-10.5
		S430.802,193.463,425.003,193.463z"/>
</g>
<g>
</g>
<g>
</g>
<g>
</g>
<g>
</g>
<g>
</g>
<g>
</g>
<g>
</g>
<g>
</g>
<g>
</g>
<g>
</g>
<g>
</g>
<g>
</g>
<g>
</g>
<g>
</g>
<g>
</g>
</svg>
