<?xml version="1.0" encoding="iso-8859-1"?>
<!-- Generator: Adobe Illustrator 18.0.0, SVG Export Plug-In . SVG Version: 6.00 Build 0)  -->
<!DOCTYPE svg PUBLIC "-//W3C//DTD SVG 1.1//EN" "http://www.w3.org/Graphics/SVG/1.1/DTD/svg11.dtd">
<svg version="1.1" id="Capa_1" xmlns="http://www.w3.org/2000/svg" xmlns:xlink="http://www.w3.org/1999/xlink" x="0px" y="0px"
	 viewBox="0 0 477.01 477.01" style="enable-background:new 0 0 477.01 477.01;" xml:space="preserve">
<path d="M476.925,365.574C474.761,352.302,468.971,340,460.178,330c-15.482-17.609-38.607-26.57-61.86-23.977
	c-18.573,2.073-37.058-2.086-53.026-11.602c21.313-23.239,34.957-52.848,38.727-84.19l15.616-15.616
	c2.539-2.539,2.539-6.654,0-9.192c-2.538-2.538-6.654-2.538-9.192,0l-17.225,17.225c-1.054,1.054-1.714,2.438-1.869,3.921
	c-3.134,29.995-16.166,58.375-36.798,80.315c-2.354-1.923-73.001-72.34-73.001-72.34c14.117-0.304,27.347-5.93,37.363-15.946
	c2.539-2.539,2.539-6.654,0-9.192c-2.538-2.538-6.654-2.538-9.192,0c-7.846,7.847-18.279,12.168-29.375,12.168
	c-10.204,0-19.84-3.663-27.427-10.352c-0.366-0.406-24.982-25.044-24.982-25.044c-2.539-2.539-6.654-2.539-9.192,0
	s-2.539,6.654,0,9.192c0,0,24.258,24.42,24.886,24.993c2.812,3.318,4.355,7.475,4.355,11.874c0,4.917-1.915,9.541-5.392,13.018
	s-8.101,5.392-13.018,5.392c-4.917,0-9.541-1.915-13.018-5.392l-38.521-38.521c-4.38-4.38-4.38-11.508,0-15.888l38.829-38.829
	c14.99-14.99,36.419-21.832,57.317-18.309l0.219,0.037c16.619,2.806,33.663-2.637,45.583-14.558c2.539-2.539,2.539-6.654,0-9.192
	c-2.538-2.538-6.654-2.538-9.192,0c-8.951,8.951-21.746,13.034-34.222,10.933l-0.219-0.038
	c-25.042-4.223-50.719,3.975-68.678,21.934l-8.921,8.921l-18.205-18.205c-9.797-9.797-17.291-22.166-21.669-35.77
	c-3.499-10.87-9.39-20.499-17.51-28.619C107.539,35.322,89.16,27.877,69.595,28.185c-19.558,0.308-37.717,8.348-51.133,22.638
	c-1.532,1.632-2.117,3.938-1.547,6.103c0.57,2.165,2.213,3.885,4.351,4.551L60.674,73.77c11.736,3.661,18.305,16.188,14.644,27.924
	c-3.661,11.735-16.188,18.307-27.923,14.644L8.436,104.185c-2.151-0.67-4.496-0.181-6.197,1.297
	c-1.702,1.477-2.517,3.73-2.154,5.954c2.164,13.272,7.954,25.574,16.747,35.574c15.483,17.61,38.612,26.574,61.86,23.977
	c25.487-2.846,50.813,6.053,69.691,24.427c0.159,0.168,7.883,7.932,7.883,7.932l-29.233,29.233
	c-11.562,11.561-11.562,30.373,0,41.934c5.36,5.36,12.411,8.408,19.95,8.66c-2.986,10.093-0.503,21.474,7.448,29.425
	c5.781,5.781,13.374,8.671,20.967,8.671c2.931,0,5.86-0.436,8.687-1.297c0.288,7.482,3.333,14.475,8.657,19.799
	c5.6,5.601,13.046,8.685,20.967,8.685c6.273,0,12.245-1.942,17.242-5.529c1.029,5.984,3.861,11.497,8.242,15.878
	c5.601,5.601,13.046,8.686,20.974,8.686c7.924-0.01,15.37-3.097,20.965-8.692l15.33-15.33l20.002,20.002
	c9.797,9.797,17.291,22.167,21.669,35.77c3.499,10.87,9.39,20.5,17.51,28.62c13.553,13.553,31.484,20.975,50.605,20.975
	c0.388,0,0.777-0.003,1.167-0.009c19.558-0.308,37.717-8.348,51.133-22.638c1.532-1.632,2.117-3.938,1.547-6.103
	c-0.57-2.165-2.213-3.885-4.351-4.551l-39.408-12.294c-11.736-3.661-18.305-16.188-14.644-27.924
	c1.773-5.685,5.655-10.339,10.929-13.105c5.273-2.766,11.309-3.313,16.995-1.539l38.958,12.154c2.151,0.671,4.495,0.181,6.197-1.297
	C476.472,370.051,477.287,367.798,476.925,365.574z M77.249,158.066c-19.039,2.126-37.973-5.217-50.655-19.641
	c-4.744-5.396-8.418-11.617-10.876-18.351l27.805,8.674c9,2.807,18.555,1.942,26.904-2.437c8.35-4.379,14.494-11.747,17.301-20.747
	c5.796-18.579-4.604-38.409-23.183-44.206l-28.456-8.877c9.726-7.155,21.379-11.106,33.711-11.301
	c0.32-0.005,0.637-0.007,0.955-0.007c15.649,0,30.327,6.075,41.419,17.167c6.647,6.647,11.467,14.523,14.328,23.41
	c5.009,15.56,13.603,29.73,24.852,40.979l18.205,18.205l-20.715,20.715c-3.472,3.472-5.656,7.746-6.577,12.23
	C123.039,161.199,100.218,155.505,77.249,158.066z M131.347,253.546c0-4.448,1.732-8.63,4.877-11.775l29.235-29.231
	c0,0,23.029,22.976,23.612,23.48l-29.302,29.305c-3.144,3.142-7.325,4.873-11.77,4.873c-4.448,0-8.629-1.732-11.774-4.877
	S131.347,257.994,131.347,253.546z M163.623,303.406c-6.492-6.493-6.492-17.057,0-23.549l37.394-37.394
	c2.751,0.775,5.623,1.183,8.559,1.183c8.39,0,16.278-3.267,22.21-9.2c1.718-1.718,3.205-3.604,4.461-5.615
	c0.349,0.297,0.699,0.593,1.027,0.921c3.148,3.145,4.881,7.325,4.881,11.771s-1.733,8.627-4.884,11.774l-50.099,50.107
	C180.679,309.898,170.115,309.897,163.623,303.406z M213.708,335.456c-4.448,0-8.629-1.732-11.774-4.877s-4.877-7.327-4.877-11.774
	c0-4.443,1.729-8.621,4.868-11.765c0.003-0.003,0.007-0.006,0.011-0.01l44.534-44.536c3.247-3.247,7.51-4.869,11.774-4.869
	c4.264,0,8.529,1.624,11.775,4.869c6.492,6.493,6.492,17.057,0,23.549l-44.536,44.535
	C222.337,333.724,218.156,335.456,213.708,335.456z M271.939,349.605c-3.145,3.145-7.331,4.879-11.781,4.885
	c-4.447,0-8.628-1.732-11.773-4.877c-6.492-6.492-6.489-17.058,0.007-23.554c0.017-0.018,31.799-31.804,31.799-31.804
	c3.145-3.145,7.327-4.877,11.774-4.877s8.63,1.732,11.775,4.877c6.492,6.492,6.492,17.057,0,23.549L271.939,349.605z
	 M433.487,348.261c-9-2.808-18.556-1.942-26.904,2.437c-8.35,4.379-14.494,11.747-17.301,20.747c-2.808,9-1.943,18.555,2.436,26.904
	c4.378,8.349,11.747,14.494,20.747,17.301l28.456,8.877c-9.726,7.155-21.379,11.106-33.711,11.301
	c-16.029,0.26-31.056-5.842-42.375-17.16c-6.647-6.647-11.467-14.523-14.328-23.41c-5.008-15.559-13.602-29.729-24.852-40.979
	l-20.002-20.001l7.279-7.279c11.561-11.562,11.561-30.374,0-41.934c-5.6-5.601-13.046-8.685-20.967-8.685
	c-1.414,0-2.812,0.103-4.188,0.296c0.675-8.374-2.175-16.981-8.567-23.372c-6.613-6.613-15.597-9.437-24.241-8.484
	c0.119-1.087,0.186-2.185,0.186-3.294c0-7.922-3.087-15.369-8.691-20.966c-1.737-1.737-3.654-3.221-5.721-4.461
	c0.15-1.231,0.235-2.477,0.24-3.736l77.558,77.558c21.777,21.777,51.379,32.352,81.219,29.024
	c19.036-2.126,37.974,5.216,50.655,19.641c4.744,5.396,8.418,11.617,10.876,18.351L433.487,348.261z"/>
<g>
</g>
<g>
</g>
<g>
</g>
<g>
</g>
<g>
</g>
<g>
</g>
<g>
</g>
<g>
</g>
<g>
</g>
<g>
</g>
<g>
</g>
<g>
</g>
<g>
</g>
<g>
</g>
<g>
</g>
</svg>
