<?xml version="1.0" encoding="iso-8859-1"?>
<!-- Generator: Adobe Illustrator 18.0.0, SVG Export Plug-In . SVG Version: 6.00 Build 0)  -->
<!DOCTYPE svg PUBLIC "-//W3C//DTD SVG 1.1//EN" "http://www.w3.org/Graphics/SVG/1.1/DTD/svg11.dtd">
<svg version="1.1" id="Capa_1" xmlns="http://www.w3.org/2000/svg" xmlns:xlink="http://www.w3.org/1999/xlink" x="0px" y="0px"
	 viewBox="0 0 439.219 439.219" style="enable-background:new 0 0 439.219 439.219;" xml:space="preserve">
<g>
	<path d="M432.719,387.222h-22.153c-1.49,0-2.936,0.512-4.094,1.451c-22.218,18.013-50.205,27.934-78.806,27.934H315.19
		c2.443-3.909,3.934-8.47,4.144-13.358l8.637-2.484c15.605-4.497,24.643-20.851,20.146-36.455l-9.784-33.965
		c7.844,5.077,17.178,8.039,27.197,8.039c3.59,0,6.5-2.91,6.5-6.5s-2.91-6.5-6.5-6.5c-20.513,0-37.201-16.688-37.201-37.201
		l-0.029-35.912c0-3.59-2.91-6.5-6.5-6.5s-6.5,2.91-6.5,6.5v36.457c0,8.91-7.249,16.159-16.159,16.159s-16.158-7.249-16.158-16.159
		v-49.554c0-5.311,4.321-9.632,9.632-9.632h49.948c19.094,0,37.101,9.289,48.162,24.842l0.118,0.166
		c8.998,12.65,23.638,20.203,39.161,20.203c3.59,0,6.5-2.91,6.5-6.5s-2.91-6.5-6.5-6.5c-11.324,0-22.004-5.509-28.563-14.731
		l-0.118-0.166c-8.471-11.91-20.276-20.806-33.65-25.783c24.162-12.021,40.811-36.962,40.811-65.73
		c0-40.461-32.918-73.379-73.38-73.379l-73.247-0.007c-72.942,0-146.052-24.599-211.422-71.138
		c-1.981-1.411-4.585-1.598-6.748-0.482s-3.521,3.344-3.521,5.777l0,73.802C15.633,102.363,0,127.582,0,155.348
		c0,27.754,15.634,52.973,40.168,65.42l0,73.795c0,2.433,1.358,4.662,3.521,5.777c0.938,0.484,1.96,0.723,2.978,0.723
		c1.328,0,2.649-0.406,3.771-1.205c55.427-39.46,116.417-63.139,178.152-69.432l6.53,17.706h-2.155
		c-15.196,0-27.559,12.363-27.559,27.559c0,6.995,2.624,13.386,6.934,18.251c-8.245,4.769-13.808,13.678-13.808,23.868
		c0,10.269,5.65,19.238,14.001,23.979c-4.252,4.851-6.838,11.197-6.838,18.14c0,13.348,9.539,24.506,22.158,27.024
		c-2.852,4.339-4.518,9.525-4.518,15.095c0,15.196,12.362,27.559,27.559,27.559h76.772c30.796,0,60.947-10.419,85.172-29.385h19.881
		c3.59,0,6.5-2.91,6.5-6.5S436.309,387.222,432.719,387.222z M13,155.335c0-20.531,10.399-39.376,27.167-50.416l0,100.846
		C23.399,194.724,13,175.877,13,155.335z M324.375,388.272l-7.577,2.179c-1.825-3.917-4.543-7.334-7.892-9.993
		c5.64-5.05,9.198-12.381,9.198-20.53c0-8.439-3.817-16.001-9.811-21.061c5.993-5.059,9.81-12.621,9.81-21.06
		c0-2.164-0.252-4.282-0.738-6.342c0.551-0.443,1.086-0.904,1.604-1.385l16.658,57.826
		C338.138,376.625,333.089,385.761,324.375,388.272z M395.485,155.341c0,33.293-27.086,60.379-60.38,60.379h-40.85V94.962h40.85
		C368.399,94.962,395.485,122.048,395.485,155.341z M281.256,94.962v120.759h-19.397c-63.658,0-127.351,18.017-186.211,52.386
		V42.568c58.86,34.369,122.552,52.387,186.211,52.387L281.256,94.962z M53.168,28.502c3.142,2.106,6.305,4.148,9.479,6.157v241.356
		c-3.174,2.009-6.338,4.052-9.48,6.158L53.168,28.502z M242.042,229.331c6.603-0.402,13.211-0.61,19.817-0.61h10.693
		c-1.637,3.129-2.568,6.683-2.568,10.453v8.959h-21.008L242.042,229.331z M232.965,261.132l37.019,0.002
		c0,0,0.014,28.61,0.04,29.114l-37.058,0.002c-8.027,0-14.559-6.531-14.559-14.56C218.406,267.664,224.938,261.132,232.965,261.132z
		 M226.092,303.251h47.782c5.042,8.737,14.476,14.635,25.267,14.635c2.032,0,4.016-0.21,5.932-0.608
		c0.006,0.177,0.029,0.352,0.029,0.531c0,8.028-6.532,14.56-14.561,14.56l-64.45,0.001c-8.028,0-14.56-6.531-14.56-14.56
		C211.532,309.782,218.063,303.251,226.092,303.251z M218.695,359.929c0-8.028,6.531-14.559,14.56-14.559h57.29
		c8.027,0,14.559,6.531,14.559,14.559s-6.531,14.559-14.559,14.559h-57.29C225.227,374.488,218.695,367.957,218.695,359.929z
		 M250.894,416.606c-8.027,0-14.559-6.531-14.559-14.559c0-8.028,6.531-14.56,14.559-14.56h40.912c8.028,0,14.56,6.531,14.56,14.56
		c0,8.028-6.531,14.559-14.56,14.559H250.894z"/>
	<path d="M335.105,117.204c21.029,0,38.138,17.108,38.138,38.137c0,3.59,2.91,6.5,6.5,6.5s6.5-2.91,6.5-6.5
		c0-28.197-22.94-51.137-51.138-51.137c-3.59,0-6.5,2.91-6.5,6.5S331.516,117.204,335.105,117.204z"/>
</g>
<g>
</g>
<g>
</g>
<g>
</g>
<g>
</g>
<g>
</g>
<g>
</g>
<g>
</g>
<g>
</g>
<g>
</g>
<g>
</g>
<g>
</g>
<g>
</g>
<g>
</g>
<g>
</g>
<g>
</g>
</svg>
